<svg width="372" height="112" viewBox="0 0 372 112" fill="none" xmlns="http://www.w3.org/2000/svg">
<path fill-rule="evenodd" clip-rule="evenodd" d="M348.539 57.6952H351.882L334.671 104.927H331.328L348.539 57.6952Z" fill="white"/>
<path d="M185.734 104.93L166.431 104.927C159.94 104.926 156.009 99.1145 158.385 92.9217L166.582 70.4215L173.295 51.9965C174.902 47.6622 178.824 44.7869 183.336 44.7869H207.649L204.162 54.3595H184.343C183.047 54.3595 182.197 54.9711 181.792 56.1731L168.604 92.3732C167.896 93.9859 168.85 95.3539 170.496 95.3539H189.223L185.734 104.93Z" fill="white"/>
<path d="M269.484 95.3537L265.996 104.927H246.702C240.211 104.927 236.28 99.1145 238.656 92.9214L248.979 64.5862L253.566 51.9963C255.173 47.6622 259.095 44.7869 263.606 44.7869C268.704 44.7869 273.802 44.7869 278.9 44.7869C285.437 44.7869 289.27 50.5258 286.987 56.7905L280.964 73.3241C279.683 76.8401 277.253 79.1642 273.767 80.1874L250.866 86.9069L248.738 92.7471C248.32 94.1919 249.249 95.3539 250.766 95.3539L269.484 95.3537ZM276.447 54.3593H264.613C263.385 54.3593 262.557 54.9093 262.13 55.9909L254.869 75.92L270.616 71.2994C271.527 71.0323 272.088 70.4596 272.388 69.6347L277.397 55.8855C277.646 55.2023 277.249 54.3593 276.447 54.3593Z" fill="white"/>
<path d="M298.035 44.7869H308.05H320.743C327.28 44.7869 331.113 50.5258 328.83 56.7905L322.807 73.3241C321.526 76.8401 319.096 79.1644 315.61 80.1874L292.709 86.9069L286.144 104.927H286.136H276.125H276.121L298.035 44.7869ZM296.712 75.92L312.459 71.2994C313.37 71.0323 313.931 70.4596 314.232 69.6347L319.24 55.8855C319.489 55.2023 319.092 54.3595 318.29 54.3595H304.567L296.712 75.92Z" fill="white"/>
<path d="M336.984 52.7428L337.256 51.9965C338.863 47.6622 342.785 44.7869 347.297 44.7869H371.611L368.123 54.3595H348.304C347.009 54.3595 346.158 54.9711 345.754 56.1733L327.992 104.927H327.984H317.973H317.966L336.982 52.7428H336.984Z" fill="white"/>
<path d="M147.655 76.4782L128.01 88.8053L122.135 104.927H112.116L134.026 44.7869H144.045L132.706 75.9184L152.351 63.5915L159.204 44.7869H169.223L147.313 104.927H137.293L147.655 76.4782Z" fill="white"/>
<path fill-rule="evenodd" clip-rule="evenodd" d="M144.282 37.3538H164.382L158.27 25.1428L142.976 34.7438L144.282 37.3538Z" fill="white"/>
<path d="M62.5005 60.3551C58.3579 56.1948 53.5762 52.1474 48.0942 48.2445L50.0739 45.1421C50.1442 45.0404 50.2107 44.936 50.2734 44.8292L50.2737 44.8286C55.7348 48.7038 60.5374 52.7228 64.7361 56.8567L62.5005 60.3551Z" fill="white"/>
<path d="M81.5428 65.6113C83.078 67.7884 84.5116 70.0214 85.8386 72.307C87.8111 75.7038 89.5446 79.2108 91.0238 82.8183L91.0543 82.8918L91.3325 83.6512L89.1149 89.6819L87.0459 84.0345C85.6499 80.6386 84.0184 77.3416 82.1662 74.1521C81.221 72.5242 80.2168 70.9218 79.1555 69.3469L81.5428 65.6113Z" fill="white"/>
<path d="M54.0978 38.8356C56.8593 40.7848 59.5506 42.83 62.1505 44.9765C64.3839 46.8201 66.5527 48.7402 68.6448 50.7399L66.4153 54.2288C64.2122 52.089 61.9146 50.0406 59.5387 48.0791C57.0729 46.0434 54.5259 44.1037 51.9162 42.2543L54.0978 38.8356Z" fill="white"/>
<path d="M91.8579 104.927L91.8577 104.927H85.0061L84.7171 102.984C83.3593 93.85 80.2529 84.7704 74.9035 76.0008L77.3425 72.1845C83.2994 81.3732 86.8754 90.9051 88.5845 100.514L118.439 18.584H118.456H123.338L91.8759 104.927H91.8579Z" fill="white"/>
<path d="M50.0976 94.3557C47.7743 98.1301 45.91 101.942 42.0543 104.516C38.1466 107.126 32.819 108.258 28.3974 109.072C24.9097 109.714 12.7415 111.25 5.78454 111.03C1.89507 110.906 0.598531 110.958 0.418438 107.501C0.362849 106.433 0.406075 105.338 0.426446 104.792C0.687401 97.7445 10.3473 100.104 14.7314 100.1C23.9997 100.091 40.293 100.728 46.3524 91.6516L100.268 7.15759L104.131 9.67999L50.0976 94.3557Z" fill="white"/>
<path d="M102.871 17.6204C105.194 13.846 107.058 10.0345 110.914 7.45959C114.822 4.85036 120.149 3.71773 124.571 2.90417C128.059 2.2623 140.227 0.726112 147.184 0.94648C151.073 1.06967 152.37 1.01808 152.55 4.47556C152.605 5.54294 152.562 6.63783 152.542 7.18446C152.281 14.2316 142.621 11.8716 138.237 11.8762C128.969 11.8851 112.675 11.2481 106.616 20.3245L52.7 104.818L48.8368 102.296L102.871 17.6204Z" fill="white"/>
<path d="M188.427 33.8663C187.529 34.7354 186.339 35.2318 185.05 35.2318C183.248 35.2318 182.259 34.0526 182.553 32.377C182.91 30.3446 184.76 28.6538 187.105 28.6538C188.363 28.6538 189.058 29.1191 189.495 29.8173L191.476 28.4368C190.948 27.1954 189.843 26.3267 187.669 26.3267C183.755 26.3267 180.627 29.1037 180.02 32.5634C179.394 36.1315 181.814 37.5588 184.533 37.5588C186.645 37.5588 188.42 36.7365 189.592 35.3714L188.427 33.8663ZM197.967 37.3727H200.375L204.393 26.5131H194.763L190.745 37.3727H193.152L196.341 28.7625H201.156L197.967 37.3727ZM204.601 32.7495C204.12 35.4955 205.699 37.5588 208.712 37.5588C212.3 37.5588 215.636 34.9215 216.304 31.1202C216.799 28.2967 215.265 26.3267 212.221 26.3267C207.981 26.3267 205.086 29.988 204.601 32.7495ZM207.138 32.5479C207.513 30.4066 209.436 28.6538 211.549 28.6538C213.273 28.6538 214.018 29.8947 213.762 31.3531C213.397 33.4322 211.512 35.2318 209.384 35.2318C207.8 35.2318 206.849 34.192 207.138 32.5479ZM218.916 37.3727L220.183 33.9595H222.28C225.309 33.9595 227.938 32.6099 228.433 29.7864C228.743 28.0175 228.122 26.5131 225.031 26.5131H220.527L216.509 37.3727H218.916ZM224.264 28.7625C225.584 28.7625 226.025 29.2587 225.902 29.9567C225.72 30.9965 224.834 31.7101 223.079 31.7101H221.013L222.105 28.7625H224.264ZM229.869 28.7625H233.348L230.16 37.3727H232.567L235.756 28.7625H239.25L240.08 26.5131H230.699L229.869 28.7625ZM240.036 37.3727L247.688 31.0274L245.332 37.3727H247.74L251.758 26.5131H249.754L242.128 32.8891L244.489 26.5131H242.082L238.064 37.3727H240.036ZM250.751 37.3727H255.488C258.284 37.3727 260.604 36.4575 261.094 33.6647C261.287 32.5634 260.961 31.9426 260.444 31.6168C261.356 31.1982 262.254 30.3291 262.452 29.1965C262.763 27.4283 262.023 26.5131 259.63 26.5131H254.769L250.751 37.3727ZM257.015 32.9204C258.025 32.9204 258.694 33.0907 258.572 33.7888C258.408 34.7199 257.607 35.1231 256.069 35.1231H253.988L254.81 32.9204H257.015ZM258.553 28.7625C259.671 28.7625 259.979 29.0415 259.884 29.5848C259.753 30.3291 259.089 30.7484 258.018 30.7484H255.61L256.347 28.7625H258.553ZM269.511 37.3727H271.919L275.937 26.5131H273.53L271.958 30.7791H267.128L268.699 26.5131H266.292L262.274 37.3727H264.681L266.282 33.0287H271.113L269.511 37.3727ZM273.859 37.3727H276.53L278.158 35.3559H282.631L282.774 37.3727H285.181L284.431 26.5131H282.645L273.859 37.3727ZM282.301 30.1585L282.506 33.3235H279.757L282.301 30.1585ZM293.582 37.3727H295.99L300.008 26.5131H295.162C292.319 26.5131 289.875 27.8781 289.414 30.5001C289.164 31.9271 289.741 32.7962 290.786 33.3081L286.111 37.3727H289.016L293.14 33.7888H294.91L293.582 37.3727ZM293.364 31.5394C292.37 31.5394 291.812 31.0895 291.967 30.205C292.147 29.1811 293.105 28.7625 294.488 28.7625H296.771L295.74 31.5394H293.364ZM309.521 37.3727H322.242L326.26 26.5131H323.853L320.664 35.1231H317.915L321.103 26.5131H318.696L315.508 35.1231H312.758L315.947 26.5131H313.54L309.521 37.3727ZM325.254 37.3727H327.661L328.917 34.0217L330.372 32.9823L332.413 37.3727H335.287L332.586 31.524L338.994 26.5131H335.64L330.086 30.8103L331.679 26.5131H329.272L325.254 37.3727ZM337.184 32.7495C336.702 35.4955 338.281 37.5588 341.294 37.5588C344.882 37.5588 348.219 34.9215 348.886 31.1202C349.381 28.2967 347.848 26.3267 344.803 26.3267C340.563 26.3267 337.669 29.988 337.184 32.7495ZM339.72 32.5479C340.096 30.4066 342.018 28.6538 344.131 28.6538C345.855 28.6538 346.6 29.8947 346.344 31.3531C345.979 33.4322 344.095 35.2318 341.967 35.2318C340.383 35.2318 339.431 34.192 339.72 32.5479ZM355.941 37.3727H358.348L362.366 26.5131H354.212L353.748 27.7385C351.124 34.6419 350.349 35.3401 348.769 35.1385L347.942 37.3727C348.138 37.4034 348.571 37.4192 348.866 37.4192C351.615 37.4192 353.241 35.2318 355.214 30.0967L355.699 28.8399H359.1L355.941 37.3727ZM360.288 37.3727H362.96L364.587 35.3559H369.06L369.203 37.3727H371.611L370.861 26.5131H369.074L360.288 37.3727ZM368.73 30.1585L368.935 33.3235H366.186L368.73 30.1585Z" fill="white"/>
<path fill-rule="evenodd" clip-rule="evenodd" d="M95.4363 104.927H105.452L137.735 16.3314H127.72L95.4363 104.927Z" fill="white"/>
<path fill-rule="evenodd" clip-rule="evenodd" d="M184.578 57.6953H187.921L175.439 91.9496H172.096L184.578 57.6953Z" fill="white"/>
<path d="M214.35 72.3092L205.954 95.3539H219.287C220.583 95.3539 221.403 94.7441 221.838 93.5503L229.025 73.8352C229.116 72.9729 229.059 72.3092 228.005 72.3092H214.35ZM214.357 44.7869H246.085L242.598 54.3595H220.889L217.837 62.7366H230.641C236.139 62.7366 239.794 66.8149 239.216 72.3092C239.133 73.0948 238.917 73.9021 238.613 74.737L230.553 96.8633C228.831 101.592 224.257 104.926 219.373 104.926L192.442 104.927C199.747 84.8804 207.052 64.8338 214.357 44.7869Z" fill="white"/>
<path fill-rule="evenodd" clip-rule="evenodd" d="M28.0751 32.1916C27.1222 33.6713 30.5156 37.5484 35.6549 40.8503C40.7939 44.152 45.7325 45.6292 46.6858 44.1492C47.3795 43.0716 49.3367 40.0325 50.0304 38.9552C50.9837 37.4751 47.5901 33.5986 42.4513 30.2967C37.7921 27.3033 33.2979 25.8098 31.7887 26.6595C31.2815 26.9453 31.1768 27.4498 31.3176 28.0314C32.3298 32.1973 42.9012 38.716 47.5809 39.4492C42.645 39.1425 31.6979 32.7557 30.6469 28.1999L28.0751 32.1916Z" fill="white"/>
</svg>
