<svg width="396" height="71" viewBox="0 0 396 71" fill="none" xmlns="http://www.w3.org/2000/svg">
<path fill-rule="evenodd" clip-rule="evenodd" d="M287.07 5.65198H396.479V0.956324H287.07V5.65198Z" fill="#0082C8"/>
<path fill-rule="evenodd" clip-rule="evenodd" d="M287.07 70.4528H396.479V65.7572H287.07V70.4528Z" fill="#0082C8"/>
<path d="M64.5444 47.2372H69.6738L78.0411 24.171H60.667L59.701 26.7742C54.2317 41.4382 52.5931 42.9207 49.2232 42.4925L47.5012 47.2372C47.9205 47.3032 48.8413 47.3363 49.47 47.3363C55.3276 47.3363 58.7539 42.69 62.8657 31.7829L63.8761 29.1139H71.1234L64.5444 47.2372ZM73.9762 47.2372H91.9792L93.7068 42.4593H80.8332L82.5002 37.8462H94.2484L95.948 33.2329H84.2003L85.7453 28.9494H98.3208L100.049 24.171H82.343L73.9762 47.2372ZM91.9618 51.0928H96.7604L98.168 47.2372H113.027L111.62 51.0928H116.418L119.553 42.4593H116.872L123.512 24.171H106.634L105.641 26.9391C102.346 36.1327 99.1401 40.6469 97.6118 42.4593H95.0971L91.9618 51.0928ZM109.97 28.9494H116.655L111.743 42.4593H103.039C105.053 40.1198 107.277 35.7373 109.457 30.2343L109.97 28.9494ZM122.648 37.4176C121.671 43.2503 125.073 47.6331 131.493 47.6331C139.138 47.6331 146.199 42.0312 147.553 33.9581C148.557 27.9607 145.254 23.7756 138.768 23.7756C129.733 23.7756 123.631 31.5524 122.648 37.4176ZM128.049 36.9896C128.81 32.4422 132.877 28.7185 137.377 28.7185C141.051 28.7185 142.661 31.3548 142.141 34.452C141.401 38.8677 137.418 42.69 132.884 42.69C129.509 42.69 127.463 40.4827 128.049 36.9896ZM145.989 47.2372H156.082C162.039 47.2372 166.965 45.2937 167.959 39.3618C168.351 37.0222 167.646 35.7046 166.537 35.0123C168.473 34.1224 170.371 32.2774 170.774 29.8719C171.404 26.1155 169.81 24.171 164.714 24.171H154.355L145.989 47.2372ZM159.256 37.7804C161.407 37.7804 162.835 38.1427 162.587 39.6255C162.255 41.6026 160.556 42.4593 157.28 42.4593H152.846L154.557 37.7804H159.256ZM162.457 28.9494C164.84 28.9494 165.502 29.5419 165.308 30.696C165.043 32.2774 163.636 33.1668 161.353 33.1668H156.223L157.758 28.9494H162.457ZM165.48 47.2372H171.173L174.604 42.9537H184.135L184.476 47.2372H189.606L187.813 24.171H184.008L165.48 47.2372ZM183.338 31.9146L183.833 38.6371H177.976L183.338 31.9146ZM205.392 47.2372H210.521L218.888 24.171H208.563C202.507 24.171 197.321 27.0712 196.388 32.6396C195.88 35.6714 197.126 37.5167 199.36 38.6045L189.474 47.2372H195.662L204.384 39.6255H208.157L205.392 47.2372ZM204.821 34.8475C202.703 34.8475 201.507 33.8919 201.822 32.0137C202.186 29.8389 204.221 28.9494 207.166 28.9494H212.031L209.885 34.8475H204.821ZM224.096 47.2372H229.789L233.22 42.9537H242.751L243.092 47.2372H248.222L246.429 24.171H242.623L224.096 47.2372ZM241.954 31.9146L242.449 38.6371H236.591L241.954 31.9146ZM255.37 47.2372L258.008 39.9882H262.476C268.929 39.9882 274.506 37.1216 275.511 31.1242C276.141 27.3674 274.79 24.171 268.205 24.171H258.607L250.24 47.2372H255.37ZM266.609 28.9494C269.422 28.9494 270.371 30.0034 270.123 31.4864C269.753 33.6944 267.877 35.2102 264.137 35.2102H259.735L262.01 28.9494H266.609ZM272.645 47.2372H290.648L292.375 42.4593H279.502L281.169 37.8462H292.917L294.617 33.2329H282.869L284.414 28.9494H296.99L298.718 24.171H281.012L272.645 47.2372ZM309.544 47.2372H314.674L323.041 24.171H317.912L314.639 33.2329H304.347L307.62 24.171H302.49L294.123 47.2372H299.252L302.586 38.011H312.878L309.544 47.2372ZM316.693 47.2372H322.385L325.817 42.9537H335.347L335.688 47.2372H340.818L339.025 24.171H335.219L316.693 47.2372ZM334.55 31.9146L335.045 38.6371H329.187L334.55 31.9146Z" fill="#0082C8"/>
<path fill-rule="evenodd" clip-rule="evenodd" d="M287.07 5.65198H177.661V0.956324H287.07V5.65198Z" fill="#0082C8"/>
<path fill-rule="evenodd" clip-rule="evenodd" d="M287.07 70.4528H177.661V65.7572H287.07V70.4528Z" fill="#0082C8"/>
<path fill-rule="evenodd" clip-rule="evenodd" d="M68.2511 5.65198H177.661V0.956324H68.2511V5.65198Z" fill="#0082C8"/>
<path fill-rule="evenodd" clip-rule="evenodd" d="M68.2511 70.4528H177.661V65.7572H68.2511V70.4528Z" fill="#0082C8"/>
<path fill-rule="evenodd" clip-rule="evenodd" d="M68.2509 5.65198H21.0918V0.956324H68.2509V5.65198Z" fill="#0082C8"/>
<path fill-rule="evenodd" clip-rule="evenodd" d="M68.2511 70.4528H0.341797V65.7572H68.2511V70.4528Z" fill="#0082C8"/>
</svg>
