<svg width="336" height="99" viewBox="0 0 336 99" fill="none" xmlns="http://www.w3.org/2000/svg">
<path d="M170.602 84.0448L167.766 92.613L150.168 92.6102C144.251 92.6093 140.459 87.4089 142.402 81.8676L149.065 61.735L154.521 45.2486C155.831 41.3705 159.302 38.7976 163.414 38.7976H185.577L182.742 47.3631H164.677C163.496 47.3631 162.743 47.9104 162.417 48.9861L151.697 81.3773C151.109 82.82 152.028 84.0443 153.528 84.0443H170.602V84.0448Z" fill="#0082C8"/>
<path fill-rule="evenodd" clip-rule="evenodd" d="M157.911 80.9984H154.867L165.011 50.3481H168.055L157.911 80.9984Z" fill="#0082C8"/>
<path d="M243.758 84.0443L240.922 92.6106H223.335C217.418 92.6106 213.626 87.4093 215.57 81.868L223.961 56.5139L227.689 45.2491C228.998 41.371 232.47 38.7981 236.582 38.7981C241.229 38.7981 245.875 38.7981 250.522 38.7981C256.481 38.7981 260.181 43.933 258.326 49.5387L253.429 64.3325C252.388 67.4787 250.257 69.5585 247.116 70.4738L226.483 76.4866L224.754 81.7121C224.424 83.0047 225.313 84.0448 226.696 84.0448L243.758 84.0443ZM248.63 47.3635H237.844C236.725 47.3635 235.989 47.8556 235.639 48.8233L229.737 66.6554L243.924 62.521C244.745 62.2819 245.236 61.7693 245.48 61.0314L249.552 48.7287C249.754 48.1176 249.362 47.3635 248.63 47.3635Z" fill="#0082C8"/>
<path d="M192.673 63.4245L185.849 84.0443H198.002C199.184 84.0443 199.909 83.499 200.263 82.4307L206.105 64.7898C206.157 64.0188 206.082 63.4245 205.12 63.4245H192.673ZM195.508 54.8592H207.179C212.191 54.8592 215.669 58.5085 215.339 63.4245C215.292 64.1273 215.124 64.8501 214.877 65.5969L208.326 85.395C206.926 89.6257 202.877 92.6098 198.425 92.6098L173.881 92.6106L191.691 38.7981H220.611L217.776 47.3635H197.989L195.508 54.8592Z" fill="#0082C8"/>
<path d="M267.964 38.7981H288.663C294.621 38.7981 298.321 43.9329 296.466 49.5389L291.57 64.3325C290.529 67.4787 288.398 69.5585 285.257 70.4738L264.624 76.4866L259.288 92.6106H250.155L267.964 38.7981ZM267.877 66.6554L282.065 62.521C282.886 62.2819 283.377 61.7693 283.621 61.0314L287.692 48.7287C287.895 48.1176 287.503 47.3635 286.771 47.3635H274.263L267.877 66.6554Z" fill="#0082C8"/>
<path d="M123.608 92.6106L132.034 67.1532L114.566 78.1859L109.791 92.6106H100.659L118.468 38.7981H127.601L118.381 66.6554L135.85 55.6229L141.418 38.7981H150.55L132.741 92.6106H123.608Z" fill="#0082C8"/>
<path fill-rule="evenodd" clip-rule="evenodd" d="M127.55 32.147H145.871L139.861 21.2209L126.265 29.8115L127.55 32.147Z" fill="#0082C8"/>
<path fill-rule="evenodd" clip-rule="evenodd" d="M111.692 13.2755L85.4356 92.6106H94.5684L120.825 13.2755H111.692Z" fill="#0082C8"/>
<path d="M54.7413 52.6973C50.9043 48.9719 46.4975 45.3475 41.4683 41.8528L43.1477 39.0746C43.208 38.9834 43.2646 38.89 43.3171 38.7943L43.3175 38.7938C48.3274 42.264 52.7515 45.8628 56.6382 49.5648L54.7413 52.6973Z" fill="#0082C8"/>
<path d="M71.9599 57.4042C73.4011 59.354 74.7527 61.3533 76.0108 63.4C77.8805 66.4419 79.5398 69.5819 80.974 72.8125L81.0035 72.8784L81.2757 73.5587L79.472 78.9586L77.4474 73.9019C76.0936 70.8608 74.5325 67.9084 72.7768 65.0524C71.8807 63.5946 70.9325 62.1595 69.9341 60.7494L71.9599 57.4042Z" fill="#0082C8"/>
<path d="M46.5621 33.4275C49.0948 35.1729 51.5678 37.0042 53.962 38.9265C56.0185 40.5772 58.0196 42.2968 59.9544 44.0873L58.0628 47.2112C56.0241 45.2955 53.9038 43.4609 51.716 41.7047C49.4452 39.8817 47.1052 38.1449 44.7113 36.4888L46.5621 33.4275Z" fill="#0082C8"/>
<path d="M107.979 15.2926L82.3901 92.6106H76.2522L75.9347 90.8705C74.4416 82.6912 71.384 74.5606 66.326 66.7076L68.3953 63.2905C74.0104 71.5188 77.5024 80.0539 79.3245 88.6583L103.606 15.2926H107.979Z" fill="#0082C8"/>
<path d="M44.6589 83.1439C42.6917 86.524 41.137 89.9367 37.7606 92.2426C34.3391 94.5788 29.6007 95.5931 25.6639 96.3219C22.5586 96.8967 11.7043 98.2723 5.46507 98.0748C1.97711 97.9645 0.817196 98.011 0.550953 94.9146C0.468999 93.9589 0.474516 92.9785 0.476226 92.489C0.49675 86.1785 9.22196 88.2919 13.1495 88.2879C21.4525 88.2793 36.0682 88.8501 41.2219 80.7224L86.9656 5.06056L90.5027 7.31921L44.6589 83.1439Z" fill="#0082C8"/>
<path d="M89.6137 14.4299C91.5808 11.0499 93.1355 7.63672 96.5119 5.33073C99.9334 2.99454 104.672 1.98032 108.609 1.2516C111.714 0.676781 122.568 -0.698601 128.807 -0.501396C132.296 -0.391106 133.456 -0.437218 133.722 2.65889C133.804 3.61459 133.798 4.59518 133.796 5.08479C133.776 11.3953 125.051 9.28194 121.123 9.2855C112.82 9.29405 98.2047 8.72326 93.0506 16.851L47.307 92.5128L43.7698 90.2542L89.6137 14.4299Z" fill="#0082C8"/>
<path fill-rule="evenodd" clip-rule="evenodd" d="M24.4364 25.4425L23.3521 27.6624C21.088 31.6912 37.9697 41.7471 40.433 37.3642L42.3615 34.2087C43.4839 32.3725 40.4529 28.5058 35.7416 25.6646C31.0301 22.8239 26.3551 22.0427 25.2998 23.9205C24.2446 25.7983 27.2084 29.6234 31.92 32.4641C34.8358 34.2225 37.7367 35.191 39.7754 35.2294C35.7081 35.4257 28.8688 32.146 25.9677 28.2711C25.2278 27.3075 24.6191 26.2927 24.4364 25.4425Z" fill="#0082C8"/>
<path d="M288.3 92.6106L298.518 61.7355L303.974 45.2491C305.284 41.371 308.755 38.7981 312.867 38.7981H335.029L332.195 47.3635H314.129C312.949 47.3635 312.195 47.9108 311.87 48.9865L297.432 92.6106H288.3Z" fill="#0082C8"/>
<path fill-rule="evenodd" clip-rule="evenodd" d="M303.521 92.6106H300.476L314.463 50.348H317.508L303.521 92.6106Z" fill="#0082C8"/>
</svg>
