<svg width="28" height="27" viewBox="0 0 28 27" xmlns="http://www.w3.org/2000/svg">
<mask id="path-1-outside-1" maskUnits="userSpaceOnUse" x="0.0189209" y="1.40332" width="28" height="26">
<rect fill="white" x="0.0189209" y="1.40332" width="28" height="26"/>
<path d="M22.9061 16.8845C22.3386 16.3349 21.6541 16.041 20.9286 16.041C20.209 16.041 19.5187 16.3294 18.9278 16.8791L17.079 18.5933C16.9269 18.5171 16.7748 18.4464 16.6285 18.3756C16.4179 18.2777 16.219 18.1851 16.0494 18.0872C14.3176 17.0641 12.7439 15.7308 11.2344 14.0057C10.5031 13.1458 10.0117 12.4221 9.65483 11.6874C10.1346 11.2792 10.5792 10.8548 11.0121 10.4466C11.1759 10.2942 11.3398 10.1364 11.5036 9.98404C12.7322 8.84122 12.7322 7.36099 11.5036 6.21817L9.9064 4.7325C9.72504 4.5638 9.53782 4.38965 9.36231 4.21551C9.01128 3.8781 8.64271 3.52982 8.26243 3.2033C7.69494 2.68086 7.01629 2.40332 6.30253 2.40332C5.58878 2.40332 4.89843 2.68086 4.31339 3.2033C4.30754 3.20874 4.30754 3.20874 4.30169 3.21418L2.31254 5.08079C1.56368 5.77737 1.1366 6.62632 1.04299 7.61132C0.902584 9.20039 1.40572 10.6806 1.79185 11.6493C2.73962 14.0275 4.15543 16.2315 6.26743 18.5933C8.82992 21.4395 11.9131 23.687 15.4351 25.2706C16.7807 25.8638 18.5767 26.5658 20.5834 26.6856C20.7063 26.691 20.835 26.6964 20.952 26.6964C22.3035 26.6964 23.4385 26.2448 24.3277 25.3468C24.3336 25.3359 24.3453 25.3305 24.3511 25.3196C24.6553 24.9768 25.0064 24.6666 25.3749 24.3346C25.6265 24.1115 25.8839 23.8775 26.1355 23.6326C26.7147 23.0721 27.0189 22.419 27.0189 21.7497C27.0189 21.0749 26.7088 20.4273 26.118 19.8831L22.9061 16.8845ZM25.0005 22.6149C24.9947 22.6149 24.9947 22.6204 25.0005 22.6149C24.7724 22.8435 24.5383 23.0503 24.2868 23.2789C23.9065 23.6163 23.5204 23.97 23.1576 24.3673C22.5667 24.955 21.8705 25.2325 20.9579 25.2325C20.8701 25.2325 20.7765 25.2325 20.6888 25.2271C18.9512 25.1237 17.3365 24.4924 16.1254 23.9537C12.8141 22.4626 9.9064 20.3456 7.49017 17.6627C5.49517 15.426 4.16128 13.3581 3.27786 11.1377C2.73377 9.78268 2.53486 8.72693 2.62261 7.73105C2.68112 7.09433 2.94439 6.56646 3.42997 6.11477L5.42497 4.25905C5.71164 4.00871 6.01586 3.87266 6.31424 3.87266C6.68281 3.87266 6.98118 4.07946 7.1684 4.2536C7.17425 4.25905 7.1801 4.26449 7.18595 4.26993C7.54283 4.58012 7.88215 4.9012 8.23903 5.24405C8.42039 5.41819 8.6076 5.59234 8.79482 5.77192L10.392 7.25759C11.0121 7.83445 11.0121 8.36776 10.392 8.94461C10.2223 9.10243 10.0585 9.26025 9.88885 9.41263C9.39741 9.88064 8.92938 10.316 8.42039 10.7405C8.40869 10.7514 8.39699 10.7568 8.39114 10.7677C7.888 11.2357 7.98161 11.6928 8.08692 12.003C8.09277 12.0193 8.09862 12.0357 8.10447 12.052C8.51985 12.988 9.10489 13.8696 9.99416 14.9199L10 14.9254C11.6147 16.7757 13.3172 18.2178 15.1952 19.3225C15.4351 19.464 15.6808 19.5783 15.9148 19.6871C16.1254 19.7851 16.3243 19.8776 16.494 19.9756C16.5174 19.9865 16.5408 20.0028 16.5642 20.0137C16.7631 20.1062 16.9503 20.1497 17.1434 20.1497C17.629 20.1497 17.9332 19.8667 18.0327 19.7742L20.0335 17.913C20.2324 17.728 20.5483 17.5049 20.9169 17.5049C21.2796 17.5049 21.578 17.7171 21.7594 17.9022C21.7652 17.9076 21.7652 17.9076 21.7711 17.913L24.9947 20.9116C25.5973 21.4667 25.5973 22.0381 25.0005 22.6149Z"/>
</mask>
<path d="M22.9061 16.8845C22.3386 16.3349 21.6541 16.041 20.9286 16.041C20.209 16.041 19.5187 16.3294 18.9278 16.8791L17.079 18.5933C16.9269 18.5171 16.7748 18.4464 16.6285 18.3756C16.4179 18.2777 16.219 18.1851 16.0494 18.0872C14.3176 17.0641 12.7439 15.7308 11.2344 14.0057C10.5031 13.1458 10.0117 12.4221 9.65483 11.6874C10.1346 11.2792 10.5792 10.8548 11.0121 10.4466C11.1759 10.2942 11.3398 10.1364 11.5036 9.98404C12.7322 8.84122 12.7322 7.36099 11.5036 6.21817L9.9064 4.7325C9.72504 4.5638 9.53782 4.38965 9.36231 4.21551C9.01128 3.8781 8.64271 3.52982 8.26243 3.2033C7.69494 2.68086 7.01629 2.40332 6.30253 2.40332C5.58878 2.40332 4.89843 2.68086 4.31339 3.2033C4.30754 3.20874 4.30754 3.20874 4.30169 3.21418L2.31254 5.08079C1.56368 5.77737 1.1366 6.62632 1.04299 7.61132C0.902584 9.20039 1.40572 10.6806 1.79185 11.6493C2.73962 14.0275 4.15543 16.2315 6.26743 18.5933C8.82992 21.4395 11.9131 23.687 15.4351 25.2706C16.7807 25.8638 18.5767 26.5658 20.5834 26.6856C20.7063 26.691 20.835 26.6964 20.952 26.6964C22.3035 26.6964 23.4385 26.2448 24.3277 25.3468C24.3336 25.3359 24.3453 25.3305 24.3511 25.3196C24.6553 24.9768 25.0064 24.6666 25.3749 24.3346C25.6265 24.1115 25.8839 23.8775 26.1355 23.6326C26.7147 23.0721 27.0189 22.419 27.0189 21.7497C27.0189 21.0749 26.7088 20.4273 26.118 19.8831L22.9061 16.8845ZM25.0005 22.6149C24.9947 22.6149 24.9947 22.6204 25.0005 22.6149C24.7724 22.8435 24.5383 23.0503 24.2868 23.2789C23.9065 23.6163 23.5204 23.97 23.1576 24.3673C22.5667 24.955 21.8705 25.2325 20.9579 25.2325C20.8701 25.2325 20.7765 25.2325 20.6888 25.2271C18.9512 25.1237 17.3365 24.4924 16.1254 23.9537C12.8141 22.4626 9.9064 20.3456 7.49017 17.6627C5.49517 15.426 4.16128 13.3581 3.27786 11.1377C2.73377 9.78268 2.53486 8.72693 2.62261 7.73105C2.68112 7.09433 2.94439 6.56646 3.42997 6.11477L5.42497 4.25905C5.71164 4.00871 6.01586 3.87266 6.31424 3.87266C6.68281 3.87266 6.98118 4.07946 7.1684 4.2536C7.17425 4.25905 7.1801 4.26449 7.18595 4.26993C7.54283 4.58012 7.88215 4.9012 8.23903 5.24405C8.42039 5.41819 8.6076 5.59234 8.79482 5.77192L10.392 7.25759C11.0121 7.83445 11.0121 8.36776 10.392 8.94461C10.2223 9.10243 10.0585 9.26025 9.88885 9.41263C9.39741 9.88064 8.92938 10.316 8.42039 10.7405C8.40869 10.7514 8.39699 10.7568 8.39114 10.7677C7.888 11.2357 7.98161 11.6928 8.08692 12.003C8.09277 12.0193 8.09862 12.0357 8.10447 12.052C8.51985 12.988 9.10489 13.8696 9.99416 14.9199L10 14.9254C11.6147 16.7757 13.3172 18.2178 15.1952 19.3225C15.4351 19.464 15.6808 19.5783 15.9148 19.6871C16.1254 19.7851 16.3243 19.8776 16.494 19.9756C16.5174 19.9865 16.5408 20.0028 16.5642 20.0137C16.7631 20.1062 16.9503 20.1497 17.1434 20.1497C17.629 20.1497 17.9332 19.8667 18.0327 19.7742L20.0335 17.913C20.2324 17.728 20.5483 17.5049 20.9169 17.5049C21.2796 17.5049 21.578 17.7171 21.7594 17.9022C21.7652 17.9076 21.7652 17.9076 21.7711 17.913L24.9947 20.9116C25.5973 21.4667 25.5973 22.0381 25.0005 22.6149Z" />
<path d="M22.9061 16.8845C22.3386 16.3349 21.6541 16.041 20.9286 16.041C20.209 16.041 19.5187 16.3294 18.9278 16.8791L17.079 18.5933C16.9269 18.5171 16.7748 18.4464 16.6285 18.3756C16.4179 18.2777 16.219 18.1851 16.0494 18.0872C14.3176 17.0641 12.7439 15.7308 11.2344 14.0057C10.5031 13.1458 10.0117 12.4221 9.65483 11.6874C10.1346 11.2792 10.5792 10.8548 11.0121 10.4466C11.1759 10.2942 11.3398 10.1364 11.5036 9.98404C12.7322 8.84122 12.7322 7.36099 11.5036 6.21817L9.9064 4.7325C9.72504 4.5638 9.53782 4.38965 9.36231 4.21551C9.01128 3.8781 8.64271 3.52982 8.26243 3.2033C7.69494 2.68086 7.01629 2.40332 6.30253 2.40332C5.58878 2.40332 4.89843 2.68086 4.31339 3.2033C4.30754 3.20874 4.30754 3.20874 4.30169 3.21418L2.31254 5.08079C1.56368 5.77737 1.1366 6.62632 1.04299 7.61132C0.902584 9.20039 1.40572 10.6806 1.79185 11.6493C2.73962 14.0275 4.15543 16.2315 6.26743 18.5933C8.82992 21.4395 11.9131 23.687 15.4351 25.2706C16.7807 25.8638 18.5767 26.5658 20.5834 26.6856C20.7063 26.691 20.835 26.6964 20.952 26.6964C22.3035 26.6964 23.4385 26.2448 24.3277 25.3468C24.3336 25.3359 24.3453 25.3305 24.3511 25.3196C24.6553 24.9768 25.0064 24.6666 25.3749 24.3346C25.6265 24.1115 25.8839 23.8775 26.1355 23.6326C26.7147 23.0721 27.0189 22.419 27.0189 21.7497C27.0189 21.0749 26.7088 20.4273 26.118 19.8831L22.9061 16.8845ZM25.0005 22.6149C24.9947 22.6149 24.9947 22.6204 25.0005 22.6149C24.7724 22.8435 24.5383 23.0503 24.2868 23.2789C23.9065 23.6163 23.5204 23.97 23.1576 24.3673C22.5667 24.955 21.8705 25.2325 20.9579 25.2325C20.8701 25.2325 20.7765 25.2325 20.6888 25.2271C18.9512 25.1237 17.3365 24.4924 16.1254 23.9537C12.8141 22.4626 9.9064 20.3456 7.49017 17.6627C5.49517 15.426 4.16128 13.3581 3.27786 11.1377C2.73377 9.78268 2.53486 8.72693 2.62261 7.73105C2.68112 7.09433 2.94439 6.56646 3.42997 6.11477L5.42497 4.25905C5.71164 4.00871 6.01586 3.87266 6.31424 3.87266C6.68281 3.87266 6.98118 4.07946 7.1684 4.2536C7.17425 4.25905 7.1801 4.26449 7.18595 4.26993C7.54283 4.58012 7.88215 4.9012 8.23903 5.24405C8.42039 5.41819 8.6076 5.59234 8.79482 5.77192L10.392 7.25759C11.0121 7.83445 11.0121 8.36776 10.392 8.94461C10.2223 9.10243 10.0585 9.26025 9.88885 9.41263C9.39741 9.88064 8.92938 10.316 8.42039 10.7405C8.40869 10.7514 8.39699 10.7568 8.39114 10.7677C7.888 11.2357 7.98161 11.6928 8.08692 12.003C8.09277 12.0193 8.09862 12.0357 8.10447 12.052C8.51985 12.988 9.10489 13.8696 9.99416 14.9199L10 14.9254C11.6147 16.7757 13.3172 18.2178 15.1952 19.3225C15.4351 19.464 15.6808 19.5783 15.9148 19.6871C16.1254 19.7851 16.3243 19.8776 16.494 19.9756C16.5174 19.9865 16.5408 20.0028 16.5642 20.0137C16.7631 20.1062 16.9503 20.1497 17.1434 20.1497C17.629 20.1497 17.9332 19.8667 18.0327 19.7742L20.0335 17.913C20.2324 17.728 20.5483 17.5049 20.9169 17.5049C21.2796 17.5049 21.578 17.7171 21.7594 17.9022C21.7652 17.9076 21.7652 17.9076 21.7711 17.913L24.9947 20.9116C25.5973 21.4667 25.5973 22.0381 25.0005 22.6149Z" stroke="#0082C8" stroke-width="0.4" mask="url(#path-1-outside-1)"/>
<mask id="path-2-outside-2" maskUnits="userSpaceOnUse" x="13.4413" y="5.04834" width="10" height="11">
<rect fill="white" x="13.4413" y="5.04834" width="10" height="11"/>
<path d="M15.0511 7.71648C16.4888 7.99056 17.7948 8.76294 18.8374 9.94643C19.88 11.1299 20.555 12.6124 20.8019 14.2444C20.8623 14.6555 21.1751 14.942 21.5317 14.942C21.5756 14.942 21.6141 14.9358 21.658 14.9295C22.064 14.8548 22.3329 14.4188 22.2671 13.9578C21.9707 11.9833 21.1476 10.1831 19.891 8.75671C18.6344 7.33029 17.0485 6.39596 15.309 6.0596C14.9029 5.98485 14.5243 6.29007 14.4529 6.74478C14.3816 7.19949 14.645 7.64174 15.0511 7.71648Z"/>
</mask>
<path d="M15.0511 7.71648C16.4888 7.99056 17.7948 8.76294 18.8374 9.94643C19.88 11.1299 20.555 12.6124 20.8019 14.2444C20.8623 14.6555 21.1751 14.942 21.5317 14.942C21.5756 14.942 21.6141 14.9358 21.658 14.9295C22.064 14.8548 22.3329 14.4188 22.2671 13.9578C21.9707 11.9833 21.1476 10.1831 19.891 8.75671C18.6344 7.33029 17.0485 6.39596 15.309 6.0596C14.9029 5.98485 14.5243 6.29007 14.4529 6.74478C14.3816 7.19949 14.645 7.64174 15.0511 7.71648Z" />
<path d="M15.0511 7.71648C16.4888 7.99056 17.7948 8.76294 18.8374 9.94643C19.88 11.1299 20.555 12.6124 20.8019 14.2444C20.8623 14.6555 21.1751 14.942 21.5317 14.942C21.5756 14.942 21.6141 14.9358 21.658 14.9295C22.064 14.8548 22.3329 14.4188 22.2671 13.9578C21.9707 11.9833 21.1476 10.1831 19.891 8.75671C18.6344 7.33029 17.0485 6.39596 15.309 6.0596C14.9029 5.98485 14.5243 6.29007 14.4529 6.74478C14.3816 7.19949 14.645 7.64174 15.0511 7.71648Z" stroke="#0082C8" stroke-width="0.4" mask="url(#path-2-outside-2)"/>
<mask id="path-3-outside-3" maskUnits="userSpaceOnUse" x="13.6515" y="-0.303589" width="14" height="16">
<rect fill="white" x="13.6515" y="-0.303589" width="14" height="16"/>
<path d="M26.9698 13.7152C26.4815 10.4637 25.1315 7.50496 23.0573 5.15043C20.983 2.79591 18.3764 1.2636 15.512 0.709231C15.1114 0.628255 14.7327 0.9397 14.6614 1.39441C14.5956 1.85535 14.8644 2.28514 15.2705 2.36612C17.8277 2.8582 20.1599 4.23479 22.0146 6.33393C23.8694 8.43929 25.0767 11.0866 25.5102 13.9892C25.5705 14.4003 25.8833 14.6869 26.24 14.6869C26.2839 14.6869 26.3223 14.6806 26.3662 14.6744C26.7668 14.6059 27.0412 14.1699 26.9698 13.7152Z"/>
</mask>
<path d="M26.9698 13.7152C26.4815 10.4637 25.1315 7.50496 23.0573 5.15043C20.983 2.79591 18.3764 1.2636 15.512 0.709231C15.1114 0.628255 14.7327 0.9397 14.6614 1.39441C14.5956 1.85535 14.8644 2.28514 15.2705 2.36612C17.8277 2.8582 20.1599 4.23479 22.0146 6.33393C23.8694 8.43929 25.0767 11.0866 25.5102 13.9892C25.5705 14.4003 25.8833 14.6869 26.24 14.6869C26.2839 14.6869 26.3223 14.6806 26.3662 14.6744C26.7668 14.6059 27.0412 14.1699 26.9698 13.7152Z" />
<path d="M26.9698 13.7152C26.4815 10.4637 25.1315 7.50496 23.0573 5.15043C20.983 2.79591 18.3764 1.2636 15.512 0.709231C15.1114 0.628255 14.7327 0.9397 14.6614 1.39441C14.5956 1.85535 14.8644 2.28514 15.2705 2.36612C17.8277 2.8582 20.1599 4.23479 22.0146 6.33393C23.8694 8.43929 25.0767 11.0866 25.5102 13.9892C25.5705 14.4003 25.8833 14.6869 26.24 14.6869C26.2839 14.6869 26.3223 14.6806 26.3662 14.6744C26.7668 14.6059 27.0412 14.1699 26.9698 13.7152Z" stroke="#0082C8" stroke-width="0.4" mask="url(#path-3-outside-3)"/>
</svg>
