<svg width="53" height="53" viewBox="0 0 53 53" fill="none" xmlns="http://www.w3.org/2000/svg">
<g filter="url(#filter0_d)">
<path d="M26.5 0C14.0736 0 4 10.0736 4 22.5C4 34.9263 14.0736 44.9999 26.5 44.9999C38.9263 44.9999 48.9999 34.9263 48.9999 22.5C48.9867 10.0791 38.9209 0.0132778 26.5 0ZM35.9756 23.2169C35.8198 23.5293 35.5666 23.7826 35.254 23.9384V23.9464L22.3969 30.375C21.6029 30.7717 20.6377 30.4497 20.2409 29.6557C20.128 29.43 20.0699 29.1808 20.0714 28.9286V16.0714C20.071 15.1838 20.7901 14.464 21.6778 14.4635C21.9274 14.4634 22.1737 14.5214 22.3969 14.633L35.254 21.0616C36.0484 21.4575 36.3715 22.4225 35.9756 23.2169Z" fill="#0082C8"/>
</g>
<defs>
<filter id="filter0_d" x="0" y="0" width="53" height="53" filterUnits="userSpaceOnUse" color-interpolation-filters="sRGB">
<feFlood flood-opacity="0" result="BackgroundImageFix"/>
<feColorMatrix in="SourceAlpha" type="matrix" values="0 0 0 0 0 0 0 0 0 0 0 0 0 0 0 0 0 0 127 0"/>
<feOffset dy="4"/>
<feGaussianBlur stdDeviation="2"/>
<feColorMatrix type="matrix" values="0 0 0 0 0 0 0 0 0 0 0 0 0 0 0 0 0 0 0.25 0"/>
<feBlend mode="normal" in2="BackgroundImageFix" result="effect1_dropShadow"/>
<feBlend mode="normal" in="SourceGraphic" in2="effect1_dropShadow" result="shape"/>
</filter>
</defs>
</svg>
