<svg width="480" height="71" viewBox="0 0 480 71" fill="none" xmlns="http://www.w3.org/2000/svg">
<path fill-rule="evenodd" clip-rule="evenodd" d="M109.411 0.956324H0.00186157V5.65198H109.411V0.956324Z" fill="#0082C8"/>
<path fill-rule="evenodd" clip-rule="evenodd" d="M109.411 65.7572H0.00186157V70.4528H109.411V65.7572Z" fill="#0082C8"/>
<path d="M73.7933 39.7907C71.8956 41.6359 69.3693 42.6901 66.6227 42.6901C62.7839 42.6901 60.6555 40.1857 61.2518 36.6272C61.9753 32.3105 65.8867 28.7185 70.8836 28.7185C73.5646 28.7185 75.0535 29.7073 75.996 31.1897L80.1942 28.2571C79.0475 25.6212 76.6764 23.7757 72.0435 23.7757C63.7038 23.7757 57.0891 29.6741 55.8573 37.0222C54.587 44.6015 59.7711 47.6332 65.5626 47.6332C70.063 47.6332 73.8308 45.8866 76.3023 42.9866L73.7933 39.7907ZM92.0711 47.2373H97.2006L105.567 24.1711H85.0493L76.6824 47.2373H81.8119L88.4514 28.9495H98.7104L92.0711 47.2373ZM104.009 37.4176C103.031 43.2503 106.434 47.6332 112.853 47.6332C120.498 47.6332 127.56 42.0313 128.913 33.9581C129.918 27.9607 126.615 23.7757 120.129 23.7757C111.094 23.7757 104.992 31.5524 104.009 37.4176ZM109.409 36.9896C110.171 32.4422 114.237 28.7185 118.738 28.7185C122.411 28.7185 124.021 31.3548 123.502 34.452C122.762 38.8678 118.778 42.6901 114.245 42.6901C110.869 42.6901 108.823 40.4827 109.409 36.9896ZM132.479 47.2373L135.117 39.9882H139.584C146.038 39.9882 151.614 37.1217 152.62 31.1243C153.249 27.3674 151.899 24.1711 145.313 24.1711H135.716L127.349 47.2373H132.479ZM143.718 28.9495C146.531 28.9495 147.479 30.0034 147.231 31.4865C146.861 33.6944 144.985 35.2103 141.245 35.2103H136.844L139.118 28.9495H143.718ZM153.547 28.9495H160.96L154.32 47.2373H159.45L166.089 28.9495H173.535L175.263 24.1711H155.274L153.547 28.9495ZM173.25 47.2373L189.441 33.7602L184.535 47.2373H189.665L198.032 24.1711H193.762L177.626 37.7142L182.544 24.1711H177.414L169.047 47.2373H173.25ZM193.967 47.2373H204.061C210.017 47.2373 214.944 45.2937 215.938 39.3618C216.329 37.0222 215.624 35.7047 214.515 35.0123C216.451 34.1224 218.349 32.2774 218.752 29.872C219.382 26.1155 217.789 24.1711 212.692 24.1711H202.334L193.967 47.2373ZM207.234 37.7804C209.385 37.7804 210.813 38.1428 210.565 39.6255C210.234 41.6026 208.535 42.4593 205.258 42.4593H200.824L202.535 37.7804H207.234ZM210.435 28.9495C212.818 28.9495 213.479 29.542 213.286 30.696C213.021 32.2774 211.614 33.1669 209.331 33.1669H204.202L205.736 28.9495H210.435ZM231.826 47.2373H236.956L245.323 24.1711H240.193L236.92 33.233H226.628L229.901 24.1711H224.771L216.405 47.2373H221.534L224.868 38.011H235.16L231.826 47.2373ZM238.974 47.2373H244.666L248.098 42.9538H257.629L257.97 47.2373H263.1L261.307 24.1711H257.501L238.974 47.2373ZM256.832 31.9147L257.327 38.6371H251.469L256.832 31.9147ZM278.885 47.2373H284.015L292.382 24.1711H282.057C276 24.1711 270.815 27.0713 269.882 32.6397C269.373 35.6715 270.62 37.5167 272.853 38.6045L262.967 47.2373H269.156L277.878 39.6255H281.651L278.885 47.2373ZM278.314 34.8476C276.196 34.8476 275 33.8919 275.315 32.0137C275.679 29.839 277.715 28.9495 280.66 28.9495H285.525L283.378 34.8476H278.314ZM299.874 47.2373H326.977L335.344 24.1711H330.214L323.575 42.4593H317.717L324.357 24.1711H319.228L312.588 42.4593H306.73L313.37 24.1711H308.24L299.874 47.2373ZM331.279 47.2373H336.408L339.024 40.1199L342.108 37.9121L346.536 47.2373H352.658L346.797 34.8144L360.363 24.1711H353.215L341.458 33.299L344.776 24.1711H339.646L331.279 47.2373ZM355.495 37.4176C354.517 43.2503 357.919 47.6332 364.34 47.6332C371.984 47.6332 379.045 42.0313 380.399 33.9581C381.404 27.9607 378.101 23.7757 371.615 23.7757C362.58 23.7757 356.478 31.5524 355.495 37.4176ZM360.895 36.9896C361.657 32.4422 365.723 28.7185 370.223 28.7185C373.897 28.7185 375.507 31.3548 374.988 34.452C374.248 38.8678 370.264 42.6901 365.731 42.6901C362.355 42.6901 360.309 40.4827 360.895 36.9896ZM392.437 47.2373H397.566L405.933 24.1711H388.559L387.593 26.7743C382.123 41.4382 380.485 42.9208 377.115 42.4926L375.393 47.2373C375.813 47.3033 376.734 47.3363 377.362 47.3363C383.22 47.3363 386.646 42.69 390.757 31.783L391.768 29.1139H399.015L392.437 47.2373ZM399.585 47.2373H405.277L408.709 42.9538H418.239L418.581 47.2373H423.71L421.917 24.1711H418.111L399.585 47.2373ZM417.442 31.9147L417.937 38.6371H412.08L417.442 31.9147Z" fill="#0082C8"/>
<path fill-rule="evenodd" clip-rule="evenodd" d="M218.821 0.956324H109.411V5.65198H218.821V0.956324Z" fill="#0082C8"/>
<path fill-rule="evenodd" clip-rule="evenodd" d="M218.821 65.7572H109.411V70.4528H218.821V65.7572Z" fill="#0082C8"/>
<path fill-rule="evenodd" clip-rule="evenodd" d="M328.23 0.956324H218.821V5.65198H328.23V0.956324Z" fill="#0082C8"/>
<path fill-rule="evenodd" clip-rule="evenodd" d="M328.23 65.7572H218.821V70.4528H328.23V65.7572Z" fill="#0082C8"/>
<path fill-rule="evenodd" clip-rule="evenodd" d="M437.64 0.956324H328.23V5.65198H437.64V0.956324Z" fill="#0082C8"/>
<path fill-rule="evenodd" clip-rule="evenodd" d="M437.64 65.7572H328.23V70.4528H437.64V65.7572Z" fill="#0082C8"/>
<path fill-rule="evenodd" clip-rule="evenodd" d="M479.14 0.956324H437.64V5.65198H479.14V0.956324Z" fill="#0082C8"/>
<path fill-rule="evenodd" clip-rule="evenodd" d="M456.503 65.7572H437.64V70.4528H456.503V65.7572Z" fill="#0082C8"/>
</svg>
